<?xml version="1.0" encoding="UTF-8"?><svg xmlns="http://www.w3.org/2000/svg" xmlns:xlink="http://www.w3.org/1999/xlink" height="90.3" preserveAspectRatio="xMidYMid meet" version="1.0" viewBox="0.0 0.0 214.3 90.3" width="214.3" zoomAndPan="magnify"><g><g><g id="change1_1"><path d="M185.9,89.8H28.4C13,89.8,0.5,77.4,0.5,62V40.5c0-15.4,12.5-27.9,27.9-27.9h157.5 c15.4,0,27.9,12.5,27.9,27.9V62C213.8,77.4,201.3,89.8,185.9,89.8z" fill="#F18A5D"/></g><g id="change2_2"><path d="M185.9,90.3H28.4C12.7,90.3,0,77.6,0,62V40.5c0-15.6,12.7-28.4,28.4-28.4h157.5 c15.6,0,28.4,12.7,28.4,28.4V62C214.3,77.6,201.5,90.3,185.9,90.3z M28.4,13.1C13.3,13.1,1,25.4,1,40.5V62 c0,15.1,12.3,27.4,27.4,27.4h157.5c15.1,0,27.4-12.3,27.4-27.4V40.5c0-15.1-12.3-27.4-27.4-27.4H28.4z" fill="#662D91"/></g></g><g><g id="change3_1"><path d="M185.9,77.7H28.4C13,77.7,0.5,65.2,0.5,49.8V28.4C0.5,13,13,0.5,28.4,0.5l157.5,0 c15.4,0,27.9,12.5,27.9,27.9v21.5C213.8,65.2,201.3,77.7,185.9,77.7z" fill="#F8D770"/></g><g id="change2_1"><path d="M185.9,78.2H28.4C12.7,78.2,0,65.5,0,49.8V28.4C0,12.7,12.7,0,28.4,0h157.5c15.6,0,28.4,12.7,28.4,28.4 v21.5C214.3,65.5,201.5,78.2,185.9,78.2z M28.4,1C13.3,1,1,13.3,1,28.4v21.5c0,15.1,12.3,27.4,27.4,27.4h157.5 c15.1,0,27.4-12.3,27.4-27.4V28.4C213.3,13.3,201,1,185.9,1H28.4z" fill="#662D91"/></g></g><g id="change4_1"><path d="M172.3,9H38.8c-0.8,0-1.5-0.7-1.5-1.5S38,6,38.8,6h133.4c0.8,0,1.5,0.7,1.5,1.5S173.1,9,172.3,9z" fill="#FFF7F9"/></g></g></svg>